<?xml version="1.0" encoding="UTF-8" standalone="no"?>
<svg
   xmlns:dc="http://purl.org/dc/elements/1.1/"
   xmlns:cc="http://creativecommons.org/ns#"
   xmlns:rdf="http://www.w3.org/1999/02/22-rdf-syntax-ns#"
   xmlns:svg="http://www.w3.org/2000/svg"
   xmlns="http://www.w3.org/2000/svg"
   xmlns:sodipodi="http://sodipodi.sourceforge.net/DTD/sodipodi-0.dtd"
   xmlns:inkscape="http://www.inkscape.org/namespaces/inkscape"
   inkscape:version="1.0 (4035a4fb49, 2020-05-01)"
   sodipodi:docname="Chart.svg"
   id="svg35"
   version="1.1"
   width="512"
   viewBox="0 0 64 64"
   height="512">
  <metadata
     id="metadata41">
    <rdf:RDF>
      <cc:Work
         rdf:about="">
        <dc:format>image/svg+xml</dc:format>
        <dc:type
           rdf:resource="http://purl.org/dc/dcmitype/StillImage" />
      </cc:Work>
    </rdf:RDF>
  </metadata>
  <defs
     id="defs39" />
  <sodipodi:namedview
     inkscape:document-rotation="0"
     pagecolor="#ffffff"
     bordercolor="#666666"
     borderopacity="1"
     objecttolerance="10"
     gridtolerance="10"
     guidetolerance="10"
     inkscape:pageopacity="0"
     inkscape:pageshadow="2"
     inkscape:window-width="2560"
     inkscape:window-height="1377"
     id="namedview37"
     showgrid="false"
     inkscape:zoom="1.96875"
     inkscape:cx="256"
     inkscape:cy="251.37109"
     inkscape:window-x="-8"
     inkscape:window-y="-8"
     inkscape:window-maximized="1"
     inkscape:current-layer="layer1" />
  <path
     id="path2"
     fill="#fee9ab"
     d="m 61,14 v 45 a 2.006,2.006 0 0 1 -2,2 H 25 A 2.006,2.006 0 0 1 23,59 V 5 a 2.006,2.006 0 0 1 2,-2 h 25 v 9 a 2.006,2.006 0 0 0 2,2 z" />
  <path
     id="path4"
     fill="#ffd422"
     d="m 61,14 v 45 a 2.006,2.006 0 0 1 -2,2 h -4 a 2.006,2.006 0 0 0 2,-2 V 14 Z" />
  <path
     id="path6"
     fill="#ff7956"
     d="M 61,14 H 52 A 2.006,2.006 0 0 1 50,12 V 3 Z" />
  <circle
     id="circle8"
     r="8"
     fill="#bdfdff"
     cy="49"
     cx="49" />
  <path
     id="path10"
     fill="#ff3051"
     d="M 47,28 H 27 V 8 a 19.994,19.994 0 0 1 20,20 z" />
  <path
     id="path12"
     fill="#46f8ff"
     d="m 57,49 a 8,8 0 0 1 -8,8 8.239,8.239 0 0 1 -2,-0.25 8.005,8.005 0 0 0 0,-15.5 8.239,8.239 0 0 1 2,-0.25 8,8 0 0 1 8,8 z" />
  <path
     id="path14"
     fill="#cd2a00"
     d="M 47,28 H 43 A 20,20 0 0 0 27,8.4 V 8 a 19.994,19.994 0 0 1 20,20 z" />
  <path
     id="path16"
     fill="#5eac24"
     d="M 23,32 H 43 A 20,20 0 0 1 8.86,46.14 Z" />
  <path
     id="path18"
     fill="#ffcd00"
     d="M 23,12 V 32 L 8.86,46.14 A 20,20 0 0 1 23,12 Z" />
  <path
     id="path20"
     d="m 61.71,13.29 -11,-11 A 1.033,1.033 0 0 0 50,2 H 25 a 3.009,3.009 0 0 0 -3,3 v 6.05 a 20.973,20.973 0 0 0 0,41.9 V 59 a 3.009,3.009 0 0 0 3,3 h 34 a 3.009,3.009 0 0 0 3,-3 V 14 A 1.033,1.033 0 0 0 61.71,13.29 Z M 51,5.41 58.59,13 H 52 A 1,1 0 0 1 51,12 Z M 4,32 A 19.023,19.023 0 0 1 22,13.03 V 31.59 L 8.9,44.69 A 18.879,18.879 0 0 1 4,32 Z M 10.31,46.1 23.41,33 H 41.97 A 18.963,18.963 0 0 1 10.31,46.1 Z M 60,59 a 1,1 0 0 1 -1,1 H 25 A 1,1 0 0 1 24,59 V 52.95 A 21.014,21.014 0 0 0 44,32 1,1 0 0 0 43,31 H 24 V 5 a 1,1 0 0 1 1,-1 h 24 v 8 a 3.009,3.009 0 0 0 3,3 h 8 z" />
  <path
     id="path22"
     d="m 27,7 a 1,1 0 0 0 -1,1 v 20 a 1,1 0 0 0 1,1 H 47 A 1,1 0 0 0 48,28 21.023,21.023 0 0 0 27,7 Z m 1,20 V 9.03 A 19.017,19.017 0 0 1 45.97,27 Z" />
  <path
     id="path24"
     d="m 49,40 a 9,9 0 1 0 9,9 9.014,9.014 0 0 0 -9,-9 z m 0,16 a 7,7 0 1 1 7,-7 7.008,7.008 0 0 1 -7,7 z" />
  <path
     id="path26"
     d="m 47,50.586 -2.293,-2.293 -1.414,1.414 3,3 a 1,1 0 0 0 1.414,0 l 6,-6 -1.414,-1.414 z" />
  <path
     id="path28"
     d="m 50,19 h 8 v 2 h -8 z" />
  <path
     id="path30"
     d="m 50,25 h 8 v 2 h -8 z" />
  <path
     id="path32"
     d="m 50,31 h 8 v 2 h -8 z" />
  <g
     inkscape:label="Layer 1"
     id="layer1"
     inkscape:groupmode="layer">
    <rect
       y="-1.0158731"
       x="-5.015873"
       height="65.079369"
       width="71.555557"
       id="rect1518"
       style="opacity:0.30645161;fill:#ffffff;stroke-width:0.125" />
  </g>
</svg>
