<?xml version="1.0" encoding="UTF-8" standalone="no"?>
<svg
   xmlns:dc="http://purl.org/dc/elements/1.1/"
   xmlns:cc="http://creativecommons.org/ns#"
   xmlns:rdf="http://www.w3.org/1999/02/22-rdf-syntax-ns#"
   xmlns:svg="http://www.w3.org/2000/svg"
   xmlns="http://www.w3.org/2000/svg"
   xmlns:sodipodi="http://sodipodi.sourceforge.net/DTD/sodipodi-0.dtd"
   xmlns:inkscape="http://www.inkscape.org/namespaces/inkscape"
   id="Layer_1"
   data-name="Layer 1"
   viewBox="0 0 512 512"
   width="512"
   height="512"
   version="1.1"
   sodipodi:docname="Planet.svg"
   inkscape:version="1.0 (4035a4fb49, 2020-05-01)">
  <metadata
     id="metadata21">
    <rdf:RDF>
      <cc:Work
         rdf:about="">
        <dc:format>image/svg+xml</dc:format>
        <dc:type
           rdf:resource="http://purl.org/dc/dcmitype/StillImage" />
      </cc:Work>
    </rdf:RDF>
  </metadata>
  <defs
     id="defs19" />
  <sodipodi:namedview
     inkscape:document-rotation="0"
     pagecolor="#ffffff"
     bordercolor="#666666"
     borderopacity="1"
     objecttolerance="10"
     gridtolerance="10"
     guidetolerance="10"
     inkscape:pageopacity="0"
     inkscape:pageshadow="2"
     inkscape:window-width="2560"
     inkscape:window-height="1377"
     id="namedview17"
     showgrid="false"
     inkscape:zoom="1.96875"
     inkscape:cx="282.96085"
     inkscape:cy="275.79519"
     inkscape:window-x="-8"
     inkscape:window-y="-8"
     inkscape:window-maximized="1"
     inkscape:current-layer="Layer_1" />
  <path
     d="M501,256a245.086,245.086,0,0,1-9.21,66.77l-7.03.71c-.57.05-1.15.1-1.71.12l-5.94.27a41.177,41.177,0,0,0-36.04,24.72l-1.52,3.46a32.487,32.487,0,0,1-29.74,19.43H384.54a11.7,11.7,0,0,1-11.68-10.57l-1.01-10.1a40.943,40.943,0,0,0-18.66-30.52,14.434,14.434,0,0,1-6.63-12.17V298a19.826,19.826,0,0,1,6.7-14.85l43.16-38.12a42.545,42.545,0,0,0,12.51-44.11,43.345,43.345,0,0,0-36.16-30.43l-4.36-.54a21.282,21.282,0,0,1-13.43-7.11,12.039,12.039,0,0,1-1.47-13.82l9.04-15.46a311.66,311.66,0,0,1,39.3-53.2l9.75-13.6A244.464,244.464,0,0,1,501,256Z"
     style="fill:#d8ff33"
     id="path2" />
  <path
     d="M484.76,323.48l7.03-.71C462.72,425.63,368.16,501,256,501,120.69,501,11,391.31,11,256q0-11.565,1.05-22.86l2.96.28,3.34-.66a38.754,38.754,0,0,1,40.97,18.6,39.311,39.311,0,0,0,7.04,8.84l17.42,16.4a26.148,26.148,0,0,0,11.02,6.17l2.03.56a35.421,35.421,0,0,1,24.73,24.62l9.33,33.69a33.123,33.123,0,0,0,5.56,11.18l28.29,37.09a35.82,35.82,0,0,1,6.84,15.8l7.69,46.14a6.786,6.786,0,0,0,2.38,4.23,6.544,6.544,0,0,0,6.64.93,13.008,13.008,0,0,0,7.94-10.83,46.814,46.814,0,0,1,10.82-25.6l8.2-9.85a17.084,17.084,0,0,0,3.2-5.93l8.43-27.32A40.733,40.733,0,0,1,241,357.16l25.06-19.24a8.947,8.947,0,0,0,3.46-5.59,8.49,8.49,0,0,0-1.93-6.92l-16.68-19.63c-1-1.17-1.95-2.39-2.84-3.64l-12.76-17.77c-7.05-9.84-18.33-16.36-30.44-16.04a6.453,6.453,0,0,1-3.46-.91l-26.06-15.64a25.363,25.363,0,0,0-24.91-.61l-13.73,7.36a26.993,26.993,0,0,1-35.55-9.35L87.82,228.12a29.025,29.025,0,0,1,.49-31.79,32.676,32.676,0,0,1,31.31-14.15l20.01,2.54a17.989,17.989,0,0,0,17.88-8.57,31.612,31.612,0,0,1,31.34-15.47l8.75,1.12a17.8,17.8,0,0,0,16.29-6.77l7.71-10a26.039,26.039,0,0,0,.78-30.84L205.75,90.22a76.842,76.842,0,0,0-24.34-22.55,76.5,76.5,0,0,1-7.34-4.87L160.06,52.28,142.32,38.92A245.149,245.149,0,0,1,411.6,66.76l-9.75,13.6a311.66,311.66,0,0,0-39.3,53.2l-9.04,15.46a12.039,12.039,0,0,0,1.47,13.82,21.282,21.282,0,0,0,13.43,7.11l4.36.54a43.345,43.345,0,0,1,36.16,30.43,42.545,42.545,0,0,1-12.51,44.11l-43.16,38.12a19.826,19.826,0,0,0-6.7,14.85v10.12a14.434,14.434,0,0,0,6.63,12.17,40.943,40.943,0,0,1,18.66,30.52l1.01,10.1a11.7,11.7,0,0,0,11.68,10.57h25.27a32.487,32.487,0,0,0,29.74-19.43l1.52-3.46a41.177,41.177,0,0,1,36.04-24.72l5.94-.27C483.61,323.58,484.19,323.53,484.76,323.48Z"
     style="fill:#55d8d8"
     id="path4" />
  <path
     d="M267.59,325.41a8.49,8.49,0,0,1,1.93,6.92,8.947,8.947,0,0,1-3.46,5.59L241,357.16a40.733,40.733,0,0,0-14.12,20.32l-8.43,27.32a17.084,17.084,0,0,1-3.2,5.93l-8.2,9.85a46.814,46.814,0,0,0-10.82,25.6,13.008,13.008,0,0,1-7.94,10.83,6.544,6.544,0,0,1-6.64-.93,6.786,6.786,0,0,1-2.38-4.23l-7.69-46.14a35.82,35.82,0,0,0-6.84-15.8l-28.29-37.09a33.123,33.123,0,0,1-5.56-11.18l-9.33-33.69a35.421,35.421,0,0,0-24.73-24.62l-2.03-.56a26.148,26.148,0,0,1-11.02-6.17L66.36,260.2a39.311,39.311,0,0,1-7.04-8.84,38.754,38.754,0,0,0-40.97-18.6l-3.34.66-2.96-.28A245.088,245.088,0,0,1,142.32,38.92l17.74,13.36L174.07,62.8a76.5,76.5,0,0,0,7.34,4.87,76.842,76.842,0,0,1,24.34,22.55l16.63,23.97a26.039,26.039,0,0,1-.78,30.84l-7.71,10a17.8,17.8,0,0,1-16.29,6.77l-8.75-1.12a31.612,31.612,0,0,0-31.34,15.47,17.989,17.989,0,0,1-17.88,8.57l-20.01-2.54a32.676,32.676,0,0,0-31.31,14.15,29.025,29.025,0,0,0-.49,31.79l13.34,21.06a26.993,26.993,0,0,0,35.55,9.35l13.73-7.36a25.363,25.363,0,0,1,24.91.61l26.06,15.64a6.453,6.453,0,0,0,3.46.91c12.11-.32,23.39,6.2,30.44,16.04l12.76,17.77c.89,1.25,1.84,2.47,2.84,3.64Z"
     style="fill:#d8ff33"
     id="path6" />
  <path
     d="M256,11A243.9,243.9,0,0,0,142.32,38.92l17.74,13.36L174.07,62.8a76.571,76.571,0,0,0,7.151,4.752l1.1-.632a245.341,245.341,0,0,1,228.664.7l.616-.86A243.877,243.877,0,0,0,256,11Z"
     style="fill:#6bf2ee"
     id="path8" />
  <path
     d="M51,284q0-11.565,1.05-22.86l2.306-16.508A38.657,38.657,0,0,0,18.35,232.76l-3.34.66-2.96-.28Q11.015,244.435,11,256A244.91,244.91,0,0,0,136.321,469.81,244.436,244.436,0,0,1,51,284Z"
     style="fill:#6bf2ee"
     id="path10" />
  <path
     d="M54.181,244.441a245.241,245.241,0,0,1,127-176.913A76.817,76.817,0,0,1,174.07,62.8L160.06,52.28,142.32,38.92A245.088,245.088,0,0,0,12.05,233.14l2.96.28,3.34-.66A38.657,38.657,0,0,1,54.181,244.441Z"
     style="fill:#f5ff92"
     id="path12" />
  <path
     d="M 255.99995,5.0000063 A 250.99996,251.00623 0 0 0 78.516002,433.49469 251.00028,251.00659 0 0 0 433.48409,78.517846 249.35695,249.36321 0 0 0 255.99995,5.0000063 Z M 87.000004,87.002057 A 239.96096,239.96698 0 0 1 141.728,45.98103 l 28.741,21.613537 a 83.249997,83.252077 0 0 0 7.90802,5.258137 71.343011,71.344784 0 0 1 22.44698,20.78552 l 16.62202,23.970596 a 20.060996,20.061502 0 0 1 -0.60002,23.76261 l -7.70896,10.00023 a 11.786002,11.786291 0 0 1 -10.78104,4.47812 l -8.74805,-1.11902 a 37.565009,37.565939 0 0 0 -37.28704,18.40847 11.932006,11.932303 0 0 1 -11.93192,5.63112 l -20.00798,-2.5411 a 38.618995,38.619962 0 0 0 -37.036002,16.74047 34.999996,35.000872 0 0 0 -0.591004,38.36391 l 13.339994,21.06453 a 33.112995,33.113827 0 0 0 43.444972,11.42732 l 13.73294,-7.35821 a 19.341997,19.342481 0 0 1 18.98908,0.46101 l 26.06501,15.64041 a 12.367005,12.367308 0 0 0 6.69994,1.76305 c 9.65507,-0.26902 19.14908,4.80811 25.41212,13.53932 l 12.75091,17.77547 c 0.99103,1.38003 2.05005,2.73407 3.14697,4.02608 l 16.68313,19.62652 a 2.5219999,2.5220635 0 0 1 0.57596,2.08905 2.9719996,2.9720737 0 0 1 -1.19497,1.78204 l -25.05812,19.24251 A 46.483002,46.484159 0 0 0 221.142,375.71325 l -8.42197,27.3267 a 11.120002,11.120278 0 0 1 -2.08795,3.85607 l -8.20011,9.85928 a 52.600006,52.601314 0 0 0 -12.186,28.88771 7.0099998,7.0101751 0 0 1 -4.28,5.84214 0.53799996,0.53801343 0 0 1 -0.58501,-0.1 1.077,1.0770273 0 0 1 -0.20001,-0.51296 l -7.6809,-46.13618 a 41.900003,41.901046 0 0 0 -7.98402,-18.45244 l -28.29302,-37.101 a 26.791004,26.791673 0 0 1 -4.54206,-9.14418 l -9.33794,-33.69086 A 41.471003,41.472036 0 0 0 98.419011,277.54679 l -2.034015,-0.556 a 20.171999,20.172504 0 0 1 -8.489992,-4.75413 L 70.474005,255.84125 A 33.456996,33.457834 0 0 1 64.506006,248.34102 44.843997,44.845117 0 0 0 18.782008,226.59354 237.20002,237.20589 0 0 1 87.000004,87.002057 Z M 425.00004,425.01048 A 239,239.00594 0 0 1 17.000005,256.00625 q 0,-8.54122 0.600002,-16.98042 l 1.907991,-0.37697 a 32.821994,32.822821 0 0 1 34.63601,15.74138 45.462,45.463133 0 0 0 8.105997,10.19024 l 17.418001,16.39344 a 32.223003,32.223808 0 0 0 13.555003,7.59415 l 2.033991,0.55497 a 29.416999,29.417732 0 0 1 20.519,20.43256 l 9.33807,33.69083 a 38.754998,38.755968 0 0 0 6.56402,13.21735 l 28.29399,37.1009 a 29.854998,29.855746 0 0 1 5.68797,13.14534 l 7.68996,46.14014 a 12.53401,12.534316 0 0 0 12.42396,10.6793 12.500009,12.500316 0 0 0 4.83901,-0.97402 18.983997,18.984477 0 0 0 11.587,-15.81939 40.655006,40.656015 0 0 1 9.46208,-22.30055 l 8.20002,-9.85925 a 23.086997,23.087571 0 0 0 4.32694,-7.99315 l 8.4231,-27.32677 a 34.549997,34.550863 0 0 1 12.03989,-17.32044 l 25.05805,-19.24143 a 14.846992,14.847371 0 0 0 5.73697,-9.40623 14.571996,14.572369 0 0 0 -3.28202,-11.75437 l -16.68507,-19.62649 c -0.88603,-1.04199 -1.74,-2.135 -2.53896,-3.24901 l -12.75202,-17.77553 c -8.58387,-11.96618 -21.84592,-18.90036 -35.47503,-18.54044 a 0.40500002,0.40501007 0 0 1 -0.214,-0.0568 l -26.0659,-15.64048 A 31.400004,31.400785 0 0 0 147.604,245.89715 l -13.73207,7.35718 a 21.067998,21.068523 0 0 1 -27.64094,-7.27019 L 92.891002,224.9195 a 22.999995,23.000571 0 0 1 0.390009,-25.21262 26.675001,26.675664 0 0 1 25.585019,-11.56633 l 20.01092,2.54108 a 23.915,23.915595 0 0 0 23.81708,-11.50027 25.589008,25.589637 0 0 1 25.39995,-12.53833 l 8.74798,1.11908 a 23.840999,23.841595 0 0 0 21.80009,-9.05629 l 7.70902,-10.00023 a 32.018002,32.018801 0 0 0 0.95696,-37.92597 L 210.68508,86.8021 a 83.436996,83.439085 0 0 0 -26.24714,-24.300608 71.14801,71.149782 0 0 1 -6.76289,-4.500115 l -24.05913,-18.09545 a 239.57795,239.58397 0 0 1 249.8161,27.953703 l -6.24405,8.712214 a 316.46904,316.47694 0 0 0 -39.81301,53.965366 l -9.072,15.51041 a 17.988996,17.989453 0 0 0 2.15706,20.74248 27.282004,27.282685 0 0 0 17.21699,9.12323 l 4.35702,0.53606 a 37.351003,37.351935 0 0 1 31.15898,26.21763 36.526004,36.526917 0 0 1 -10.75004,37.87288 l -42.94298,38.12505 a 25.621009,25.62164 0 0 0 -8.50004,19.34244 v 10.11921 a 20.2,20.200508 0 0 0 9.15906,17.21145 34.891999,34.892871 0 0 1 15.83199,26.07566 l 0.95503,9.85925 a 17.421005,17.421442 0 0 0 17.59292,15.73637 h 25.26606 a 38.271997,38.272957 0 0 0 35.24001,-22.77553 l 1.51798,-3.3381 a 35.141994,35.142877 0 0 1 30.81903,-21.08253 l 5.94404,-0.23907 0.184,-0.0117 a 237.927,237.933 0 0 1 -58.51003,95.44833 z m 62.11588,-107.79269 -2.94983,0.3 c -0.46601,0.0462 -0.93402,0.0802 -1.39003,0.10002 l -5.93704,0.26896 a 47.125001,47.126173 0 0 0 -41.26312,28.30575 l -1.5178,3.2191 a 26.271002,26.271653 0 0 1 -24.25309,15.59737 h -25.26606 a 5.5149998,5.5151378 0 0 1 -5.70692,-4.92712 l -1.00996,-9.9802 a 46.600003,46.601165 0 0 0 -21.15713,-34.90584 8.146001,8.1462035 0 0 1 -3.66492,-7.06723 v -10.12126 a 13.615002,13.615335 0 0 1 4.44894,-10.35126 L 400.5,249.53309 A 48.527001,48.528208 0 0 0 414.73408,199.18587 49.393,49.394234 0 0 0 373.53402,164.539 l -4.37,-0.53603 a 15.310004,15.310383 0 0 1 -9.66001,-5.1151 6.0419999,6.0421511 0 0 1 -0.80002,-6.83614 l 9.038,-15.45543 a 304.46503,304.47256 0 0 1 38.53793,-52.17531 5.9269995,5.927148 0 0 0 0.45901,-0.565019 l 5.96415,-8.322205 q 6.30793,5.499138 12.29696,11.468291 a 237.43902,237.44491 0 0 1 69.99997,169.004193 240.32597,240.33199 0 0 1 -7.88509,61.21053 z"
     style="fill:#000000;stroke:#000000;stroke-width:4.1;stroke-miterlimit:4;stroke-dasharray:none"
     id="path14" />
  <rect
     y="-16.253969"
     x="-34.031746"
     height="538.92065"
     width="562.28571"
     id="rect836"
     style="opacity:0.306452;fill:#ffffff" />
</svg>
