<?xml version="1.0" encoding="UTF-8" standalone="no"?>
<svg
   xmlns:dc="http://purl.org/dc/elements/1.1/"
   xmlns:cc="http://creativecommons.org/ns#"
   xmlns:rdf="http://www.w3.org/1999/02/22-rdf-syntax-ns#"
   xmlns:svg="http://www.w3.org/2000/svg"
   xmlns="http://www.w3.org/2000/svg"
   xmlns:sodipodi="http://sodipodi.sourceforge.net/DTD/sodipodi-0.dtd"
   xmlns:inkscape="http://www.inkscape.org/namespaces/inkscape"
   inkscape:version="1.0 (4035a4fb49, 2020-05-01)"
   sodipodi:docname="Simulation.svg"
   version="1.1"
   width="512"
   viewBox="0 0 64 64"
   height="512"
   enable-background="new 0 0 64 64"
   id="_x33_0">
  <metadata
     id="metadata57">
    <rdf:RDF>
      <cc:Work
         rdf:about="">
        <dc:format>image/svg+xml</dc:format>
        <dc:type
           rdf:resource="http://purl.org/dc/dcmitype/StillImage" />
      </cc:Work>
    </rdf:RDF>
  </metadata>
  <defs
     id="defs55" />
  <sodipodi:namedview
     inkscape:current-layer="_x33_0"
     inkscape:window-maximized="1"
     inkscape:window-y="-8"
     inkscape:window-x="-8"
     inkscape:cy="256"
     inkscape:cx="256"
     inkscape:zoom="1.96875"
     showgrid="false"
     id="namedview53"
     inkscape:window-height="1377"
     inkscape:window-width="2560"
     inkscape:pageshadow="2"
     inkscape:pageopacity="0"
     guidetolerance="10"
     gridtolerance="10"
     objecttolerance="10"
     borderopacity="1"
     bordercolor="#666666"
     pagecolor="#ffffff" />
  <g
     id="g50">
    <g
       id="g34">
      <g
         id="g4">
        <path
           id="path2"
           fill="#ffeaa7"
           d="m12 48v10h-5c-1.38 0-2.63-.56-3.54-1.46-.9-.91-1.46-2.16-1.46-3.54v-44c0 2.76 2.24 5 5 5h5v26 4z" />
      </g>
      <g
         id="g8">
        <path
           id="path6"
           fill="#ffeaa7"
           d="m62 9v44c0 2.76-2.24 5-5 5h-5v-10-4-22-8h5c1.38 0 2.63-.56 3.54-1.46.9-.91 1.46-2.16 1.46-3.54z" />
      </g>
      <g
         id="g12">
        <path
           id="path10"
           fill="#e6e9ed"
           d="m57 4h-50c-1.38 0-2.63.56-3.54 1.46-.9.91-1.46 2.16-1.46 3.54 0 2.76 2.24 5 5 5h5v26 4 4h40v-4-30h5c1.38 0 2.63-.56 3.54-1.46.9-.91 1.46-2.16 1.46-3.54 0-2.76-2.24-5-5-5z" />
      </g>
      <g
         id="g16">
        <path
           id="path14"
           fill="#b4dd7f"
           d="m40 14h12v8h-12z" />
      </g>
      <g
         id="g20">
        <path
           id="path18"
           fill="#fcd770"
           d="m30 4v6h-7-7v-6-2h14z" />
      </g>
      <g
         id="g24">
        <path
           id="path22"
           fill="#ff826e"
           d="m35 25c0 2.05-1.23 3.81-3 4.58v-1.58c0-1.1-.9-2-2-2-.55 0-1.05.22-1.41.59-.37.36-.59.86-.59 1.41v1.58c-1.77-.77-3-2.53-3-4.58 0-2.01 1.18-3.74 2.89-4.53.64-.3 1.36-.47 2.11-.47.87 0 1.68.22 2.39.61 1.56.85 2.61 2.5 2.61 4.39z" />
      </g>
      <g
         id="g28">
        <path
           id="path26"
           fill="#ff826e"
           d="m20 25v2h-4v-4h4z" />
      </g>
      <g
         id="g32">
        <path
           id="path30"
           fill="#f0d0b4"
           d="m40 38c0-.55.22-1.05.59-1.41.36-.37.86-.59 1.41-.59 1.1 0 2 .9 2 2v2 4 .6c0 1.15-.11 2.29-.32 3.4-.17.9-.41 1.78-.71 2.64-.67 1.92-1.67 3.74-2.97 5.36v6h-16v-6c-1.87-2.34-3.13-5.09-3.68-8-.21-1.11-.32-2.25-.32-3.4v-.6-8c0-.55.45-1 1-1 1.66 0 3 1.34 3 3v6c0 .55.22 1.05.59 1.41.36.37.86.59 1.41.59 1.1 0 2-.9 2-2v-14.42-1.58c0-.55.22-1.05.59-1.41.36-.37.86-.59 1.41-.59 1.1 0 2 .9 2 2v1.58 4.42c0-.55.22-1.05.59-1.41.36-.37.86-.59 1.41-.59 1.1 0 2 .9 2 2v2c0-.55.22-1.05.59-1.41.36-.37.86-.59 1.41-.59 1.1 0 2 .9 2 2z" />
      </g>
    </g>
    <g
       id="g48">
      <path
         id="path36"
         d="m19 5h2v2h-2z" />
      <path
         id="path38"
         d="m23 5h4v2h-4z" />
      <path
         id="path40"
         d="m57 3h-26v-2h-16v2h-8c-3.309 0-6 2.691-6 6v44c0 3.309 2.691 6 6 6h6v-10h6.524c.626 2.654 1.801 5.17 3.476 7.346v6.654h18v-6.654c1.675-2.176 2.85-4.692 3.476-7.346h6.524v10h6c3.309 0 6-2.691 6-6v-44c0-3.309-2.691-6-6-6zm-40 0h12v6h-12zm-10 2h8v6h7.363l4.231 9.066c-1.304.903-2.229 2.309-2.504 3.934h-3.09v-2h-6v6h6v-2h3.091c.297 1.753 1.36 3.287 2.909 4.184v13.816c0 .552-.448 1-1 1s-1-.448-1-1v-6c0-2.206-1.794-4-4-4-1.103 0-2 .897-2 2v7h-6v-2h4v-2h-4v-26h-6c-2.206 0-4-1.794-4-4s1.794-4 4-4zm34 10h10v6h-10zm10 8v20h-6v-2h4v-2h-4v-1c0-1.654-1.346-3-3-3-.395 0-.77.081-1.116.22-.345-1.275-1.501-2.22-2.884-2.22-.395 0-.77.081-1.116.22-.345-1.275-1.501-2.22-2.884-2.22-.352 0-.686.072-1 .184v-1c1.838-1.064 3-3.027 3-5.184 0-1.909-.899-3.609-2.293-4.708l2.887-5.292h2.406v8zm-17 2c0 1.01-.382 1.957-1.033 2.678-.162-1.501-1.423-2.678-2.967-2.678s-2.805 1.177-2.967 2.678c-.651-.721-1.033-1.668-1.033-2.678 0-2.206 1.794-4 4-4s4 1.794 4 4zm-15-1v2h-2v-2zm-8 33h-4c-2.206 0-4-1.794-4-4v-39.531c1.063.951 2.465 1.531 4 1.531h4zm2-10v-2h6.017c.014.671.068 1.337.152 2zm30-2.403c0 3.902-1.343 7.73-3.781 10.778l-.219.274v5.351h-14v-5.351l-.219-.274c-2.438-3.048-3.781-6.876-3.781-10.778v-8.597c1.103 0 2 .897 2 2v6c0 1.654 1.346 3 3 3s3-1.346 3-3v-16c0-.552.448-1 1-1s1 .448 1 1v17h2v-11c0-.552.448-1 1-1s1 .448 1 1v11h2v-9c0-.552.448-1 1-1s1 .448 1 1v9h2v-7c0-.552.448-1 1-1s1 .448 1 1zm1.832 2.403c.084-.663.137-1.329.152-2h6.016v2zm16.168 6c0 2.206-1.794 4-4 4h-4v-42h4c1.535 0 2.938-.58 4-1.531zm-4-40h-5-1-15.594l-3.454 6.333c-.613-.212-1.268-.333-1.952-.333-.552 0-1.085.081-1.593.221l-3.837-8.221h6.43v-6h26c2.206 0 4 1.794 4 4s-1.794 4-4 4z" />
      <path
         id="path42"
         d="m39 25h10v2h-10z" />
      <path
         id="path44"
         d="m43 29h6v2h-6z" />
      <path
         id="path46"
         d="m43 17h6v2h-6z" />
    </g>
  </g>
  <rect
     y="-2.6666667"
     x="-5.1428571"
     height="67.936508"
     width="72.380951"
     id="rect882"
     style="opacity:0.306452;fill:#ffffff;stroke-width:0.125" />
</svg>
