<?xml version="1.0" encoding="UTF-8" standalone="no"?>
<svg
   xmlns:dc="http://purl.org/dc/elements/1.1/"
   xmlns:cc="http://creativecommons.org/ns#"
   xmlns:rdf="http://www.w3.org/1999/02/22-rdf-syntax-ns#"
   xmlns:svg="http://www.w3.org/2000/svg"
   xmlns="http://www.w3.org/2000/svg"
   xmlns:sodipodi="http://sodipodi.sourceforge.net/DTD/sodipodi-0.dtd"
   xmlns:inkscape="http://www.inkscape.org/namespaces/inkscape"
   inkscape:version="1.0 (4035a4fb49, 2020-05-01)"
   sodipodi:docname="link.svg"
   id="svg6"
   version="1.1"
   width="24"
   viewBox="0 0 24 24"
   height="24">
  <metadata
     id="metadata12">
    <rdf:RDF>
      <cc:Work
         rdf:about="">
        <dc:format>image/svg+xml</dc:format>
        <dc:type
           rdf:resource="http://purl.org/dc/dcmitype/StillImage" />
      </cc:Work>
    </rdf:RDF>
  </metadata>
  <defs
     id="defs10" />
  <sodipodi:namedview
     inkscape:current-layer="svg6"
     inkscape:window-maximized="1"
     inkscape:window-y="220"
     inkscape:window-x="-8"
     inkscape:cy="15.54223"
     inkscape:cx="15.055196"
     inkscape:zoom="24.656615"
     showgrid="false"
     id="namedview8"
     inkscape:window-height="1377"
     inkscape:window-width="2560"
     inkscape:pageshadow="2"
     inkscape:pageopacity="0"
     guidetolerance="10"
     gridtolerance="10"
     objecttolerance="10"
     borderopacity="1"
     bordercolor="#666666"
     pagecolor="#ffffff" />
  <path
     id="path2"
     fill="none"
     d="M0 0h24v24H0V0z" />
  <path
     id="path4"
     d="m 19.071068,12 -2.828427,-2.8284271 -1.414214,1.4142131 2.828427,2.828428 c 1.166726,1.166726 1.166726,3.075914 0,4.24264 -1.166726,1.166726 -3.075914,1.166726 -4.24264,0 L 10.585786,14.828427 9.1715729,16.242641 12,19.071068 c 1.951615,1.951615 5.119453,1.951615 7.071068,0 1.951615,-1.951615 1.951615,-5.119453 0,-7.071068 z M 9.1715729,13.414214 6.3431458,10.585786 c -1.1667262,-1.1667258 -1.1667262,-3.0759141 0,-4.2426402 1.1667261,-1.1667262 3.0759144,-1.1667262 4.2426402,0 L 13.414214,9.1715729 14.828427,7.7573593 12,4.9289322 c -1.951615,-1.9516147 -5.1194531,-1.9516147 -7.0710678,0 -1.9516147,1.9516147 -1.9516147,5.1194528 0,7.0710678 l 2.8284271,2.828427 z M 9.8786797,8.4644661 15.535534,14.12132 14.12132,15.535534 8.4644661,9.8786797 Z"
     fill="#e5e5e5" />
</svg>
