<svg id="Capa_1" enable-background="new 0 0 512 512" height="512" viewBox="0 0 512 512" width="512" xmlns="http://www.w3.org/2000/svg"><g><path d="m497 512h-482c-4.17 0-8.151-1.736-10.989-4.791s-4.277-7.153-3.97-11.312l21-285c.271-3.687 1.895-7.143 4.559-9.706l60.226-57.952 17.39-130.225c.995-7.45 7.351-13.014 14.868-13.014h103.92c7.708 0 14.162 5.843 14.926 13.514l19.07 191.486h45.833c2.622 0 5.199.688 7.473 1.994l132.528 76.146 39.278 21.153c4.26 2.294 7.151 6.501 7.766 11.3l23 179.5c.548 4.275-.77 8.58-3.617 11.816s-6.95 5.091-11.261 5.091z" fill="#af8663"/><path d="m497 512c4.311 0 8.413-1.854 11.261-5.09s4.165-7.541 3.617-11.816l-23-179.5c-.614-4.799-3.506-9.006-7.766-11.3l-39.278-21.153-132.528-76.146c-2.273-1.307-4.851-1.994-7.473-1.994h-45.833v307h241z" fill="#896645"/><path d="m409 512h-237.885l34.197-165.043c.772-3.726 2.931-7.019 6.04-9.213l56.769-40.054 19.111-81.129c1.225-5.202 5.126-9.359 10.24-10.913l91.875-27.916c7.489-2.276 15.469 1.59 18.326 8.878l40.834 104.166c1.902 4.853 1.149 10.346-1.99 14.507l-37.517 49.74z" fill="#896645"/><path d="m407.674 186.609c-2.857-7.287-10.837-11.153-18.326-8.878l-91.875 27.916c-5.113 1.554-9.014 5.711-10.239 10.913l-19.111 81.129-12.123 8.553v205.758h153v-156.977l37.518-49.74c3.139-4.162 3.892-9.654 1.99-14.507z" fill="#73543b"/><path d="m155.754 79.167v102.5c0 8.284 6.716 15 15 15s15-6.716 15-15v-97.246l51.781-64.832-.605-6.076c-.764-7.67-7.218-13.513-14.926-13.513h-7.217l-55.754 69.805c-2.123 2.658-3.279 5.96-3.279 9.362z" fill="#896645"/><path d="m452 120c-33.084 0-60-26.916-60-60s26.916-60 60-60 60 26.916 60 60-26.916 60-60 60z" fill="#ffdd54"/><path d="m452 0v120c33.084 0 60-26.916 60-60s-26.916-60-60-60z" fill="#ff9d21"/><path d="m280 455c8.284 0 15-6.716 15-15v-50c0-5.015-2.507-9.699-6.68-12.481l-68.561-45.707-8.407 5.932c-3.109 2.194-5.268 5.487-6.04 9.213l-2.053 9.91 61.741 41.161v41.972c0 8.284 6.716 15 15 15z" fill="#73543b"/><path d="m288.32 377.519-32.32-21.547v36.056l9 6v41.972c0 8.284 6.716 15 15 15s15-6.716 15-15v-50c0-5.015-2.507-9.699-6.68-12.481z" fill="#5c452e"/><path d="m95.994 280c4.152 0 8.283-1.713 11.248-5.069 5.484-6.209 4.897-15.688-1.312-21.173l-70.365-62.156-9.966 9.59c-2.664 2.563-4.288 6.02-4.559 9.706l-.547 7.42 65.576 57.925c2.853 2.519 6.396 3.757 9.925 3.757z" fill="#896645"/></g></svg>